# xmcd CD database generated by RipIT
#
# Track frame offsets:
# 150
# 9682
# 22527
# 34070
# 44319
# 63024
# 76791
# 89854
# 102648
# 126624
#
# Disc length: 1829 seconds
#
# Revision: 0
# Processed by: cddbd v1.5.2PL0 Copyright (c) Steve Scherf et al.
# Submitted via: RipIT 3.7.0 www.suwald.com/ripit/ripit.html on 2010-07-12 at 16:49
#
DISCID=7a07230a
DTITLE=Colorado Swing Big Band - Colorado Swing
DYEAR=2010
DGENRE=
TTITLE0=It's Only a Paper Moon
TTITLE1=Chattanooga Choo-Choo
TTITLE2=Blue Moon
TTITLE3=Perfidia
TTITLE4=Over the Rainbow
TTITLE5=April In Paris
TTITLE6=Fly Me to the Moon
TTITLE7=Secret Love
TTITLE8=Satin Doll
TTITLE9=Pick Yourself Up
EXTD=
EXTT0=
EXTT1=
EXTT2=
EXTT3=
EXTT4=
EXTT5=
EXTT6=
EXTT7=
EXTT8=
EXTT9=
PLAYORDER=
